<svg width="147" height="18" viewBox="0 0 147 18" fill="none" xmlns="http://www.w3.org/2000/svg">
<path d="M0 2.44893V0H11.5316V2.44893H7.23294V14.0488H4.29863V2.44893H0Z" fill="black"/>
<path d="M16.2964 7.95732V14.0488H13.3758V0H16.2141V5.37119H16.3375C16.5752 4.74924 16.9591 4.26219 17.4893 3.91006C18.0195 3.55335 18.6845 3.375 19.4844 3.375C20.2157 3.375 20.8533 3.53506 21.3972 3.85518C21.9456 4.17073 22.3707 4.62576 22.6723 5.22027C22.9786 5.81021 23.1294 6.51677 23.1248 7.33994V14.0488H20.2042V7.86128C20.2088 7.21189 20.0443 6.70655 19.7106 6.34527C19.3815 5.98399 18.9199 5.80335 18.3257 5.80335C17.9281 5.80335 17.5761 5.88796 17.2699 6.05716C16.9683 6.22637 16.7306 6.47332 16.5569 6.79802C16.3878 7.11814 16.301 7.50457 16.2964 7.95732Z" fill="black"/>
<path d="M30.2224 14.2546C29.1391 14.2546 28.2067 14.0351 27.4252 13.596C26.6482 13.1524 26.0494 12.5259 25.6289 11.7165C25.2084 10.9024 24.9982 9.93979 24.9982 8.82851C24.9982 7.74466 25.2084 6.79345 25.6289 5.97485C26.0494 5.15625 26.6413 4.51829 27.4046 4.06098C28.1725 3.60366 29.0729 3.375 30.1058 3.375C30.8005 3.375 31.4473 3.48704 32.046 3.71113C32.6493 3.93064 33.175 4.2622 33.6229 4.70579C34.0754 5.14939 34.4273 5.70732 34.6787 6.37957C34.9301 7.04726 35.0557 7.82927 35.0557 8.72561V9.5282H26.1637V7.71722H32.3065C32.3065 7.29649 32.2151 6.92378 32.0323 6.59909C31.8495 6.27439 31.5958 6.02058 31.2713 5.83765C30.9514 5.65015 30.5789 5.5564 30.1538 5.5564C29.7105 5.5564 29.3174 5.6593 28.9746 5.86509C28.6364 6.06631 28.3713 6.33841 28.1793 6.6814C27.9873 7.01982 27.8891 7.3971 27.8845 7.81326V9.53506C27.8845 10.0564 27.9805 10.5069 28.1725 10.8864C28.369 11.266 28.6455 11.5587 29.002 11.7645C29.3585 11.9703 29.7813 12.0732 30.2704 12.0732C30.5949 12.0732 30.892 12.0274 31.1616 11.936C31.4313 11.8445 31.6621 11.7073 31.8541 11.5244C32.046 11.3415 32.1923 11.1174 32.2928 10.8521L34.994 11.0305C34.8569 11.6799 34.5758 12.247 34.1508 12.7317C33.7303 13.2119 33.1864 13.5869 32.5191 13.8567C31.8563 14.122 31.0908 14.2546 30.2224 14.2546Z" fill="black"/>
<path d="M46.4622 14.0488H41.4848V0H46.5033C47.9156 0 49.1314 0.28125 50.1506 0.84375C51.1699 1.40168 51.9537 2.20427 52.5022 3.25152C53.0552 4.29878 53.3318 5.55183 53.3318 7.01067C53.3318 8.47408 53.0552 9.73171 52.5022 10.7835C51.9537 11.8354 51.1653 12.6425 50.1369 13.205C49.1131 13.7675 47.8882 14.0488 46.4622 14.0488ZM44.4534 11.5038H46.3388C47.2163 11.5038 47.9545 11.3483 48.5532 11.0373C49.1565 10.7218 49.609 10.2348 49.9107 9.57622C50.2169 8.91311 50.37 8.05793 50.37 7.01067C50.37 5.97256 50.2169 5.12424 49.9107 4.4657C49.609 3.80716 49.1588 3.32241 48.5601 3.01143C47.9613 2.70046 47.2232 2.54497 46.3456 2.54497H44.4534V11.5038Z" fill="black"/>
<path d="M60.275 14.2546C59.1918 14.2546 58.2594 14.0351 57.4778 13.596C56.7008 13.1524 56.1021 12.5259 55.6816 11.7165C55.2611 10.9024 55.0509 9.93979 55.0509 8.82851C55.0509 7.74466 55.2611 6.79345 55.6816 5.97485C56.1021 5.15625 56.694 4.51829 57.4573 4.06098C58.2251 3.60366 59.1255 3.375 60.1585 3.375C60.8532 3.375 61.5 3.48704 62.0987 3.71113C62.702 3.93064 63.2276 4.2622 63.6755 4.70579C64.128 5.14939 64.48 5.70732 64.7314 6.37957C64.9827 7.04726 65.1084 7.82927 65.1084 8.72561V9.5282H56.2164V7.71722H62.3592C62.3592 7.29649 62.2678 6.92378 62.085 6.59909C61.9022 6.27439 61.6485 6.02058 61.324 5.83765C61.004 5.65015 60.6315 5.5564 60.2065 5.5564C59.7631 5.5564 59.3701 5.6593 59.0273 5.86509C58.689 6.06631 58.424 6.33841 58.232 6.6814C58.04 7.01982 57.9418 7.3971 57.9372 7.81326V9.53506C57.9372 10.0564 58.0332 10.5069 58.2251 10.8864C58.4217 11.266 58.6982 11.5587 59.0547 11.7645C59.4112 11.9703 59.834 12.0732 60.323 12.0732C60.6475 12.0732 60.9446 12.0274 61.2143 11.936C61.484 11.8445 61.7148 11.7073 61.9067 11.5244C62.0987 11.3415 62.245 11.1174 62.3455 10.8521L65.0467 11.0305C64.9096 11.6799 64.6285 12.247 64.2034 12.7317C63.783 13.2119 63.2391 13.5869 62.5718 13.8567C61.909 14.122 61.1434 14.2546 60.275 14.2546Z" fill="black"/>
<path d="M76.5491 3.51219L72.8675 14.0488H69.5767L65.8951 3.51219H68.9803L71.1673 11.0511H71.277L73.4572 3.51219H76.5491Z" fill="black"/>
<path d="M82.5035 14.2546C81.4202 14.2546 80.4878 14.0351 79.7063 13.596C78.9293 13.1524 78.3305 12.5259 77.91 11.7165C77.4895 10.9024 77.2793 9.93979 77.2793 8.82851C77.2793 7.74466 77.4895 6.79345 77.91 5.97485C78.3305 5.15625 78.9224 4.51829 79.6857 4.06098C80.4536 3.60366 81.354 3.375 82.3869 3.375C83.0816 3.375 83.7284 3.48704 84.3271 3.71113C84.9304 3.93064 85.4561 4.2622 85.904 4.70579C86.3565 5.14939 86.7084 5.70732 86.9598 6.37957C87.2112 7.04726 87.3368 7.82927 87.3368 8.72561V9.5282H78.4448V7.71722H84.5876C84.5876 7.29649 84.4962 6.92378 84.3134 6.59909C84.1306 6.27439 83.8769 6.02058 83.5524 5.83765C83.2325 5.65015 82.86 5.5564 82.4349 5.5564C81.9916 5.5564 81.5985 5.6593 81.2557 5.86509C80.9175 6.06631 80.6524 6.33841 80.4604 6.6814C80.2684 7.01982 80.1702 7.3971 80.1656 7.81326V9.53506C80.1656 10.0564 80.2616 10.5069 80.4536 10.8864C80.6501 11.266 80.9266 11.5587 81.2831 11.7645C81.6396 11.9703 82.0624 12.0732 82.5515 12.0732C82.876 12.0732 83.173 12.0274 83.4427 11.936C83.7124 11.8445 83.9432 11.7073 84.1352 11.5244C84.3271 11.3415 84.4734 11.1174 84.5739 10.8521L87.2751 11.0305C87.138 11.6799 86.8569 12.247 86.4319 12.7317C86.0114 13.2119 85.4675 13.5869 84.8002 13.8567C84.1374 14.122 83.3719 14.2546 82.5035 14.2546Z" fill="black"/>
<path d="M92.1634 0V14.0488H89.2428V0H92.1634Z" fill="black"/>
<path d="M99.2609 14.2546C98.196 14.2546 97.275 14.0282 96.498 13.5755C95.7256 13.1181 95.1291 12.4825 94.7086 11.6684C94.2881 10.8498 94.0779 9.90091 94.0779 8.82165C94.0779 7.73323 94.2881 6.78201 94.7086 5.96799C95.1291 5.14939 95.7256 4.51372 96.498 4.06098C97.275 3.60366 98.196 3.375 99.2609 3.375C100.326 3.375 101.245 3.60366 102.017 4.06098C102.794 4.51372 103.393 5.14939 103.813 5.96799C104.234 6.78201 104.444 7.73323 104.444 8.82165C104.444 9.90091 104.234 10.8498 103.813 11.6684C103.393 12.4825 102.794 13.1181 102.017 13.5755C101.245 14.0282 100.326 14.2546 99.2609 14.2546ZM99.2746 11.9909C99.7591 11.9909 100.164 11.8537 100.488 11.5793C100.813 11.3003 101.057 10.9207 101.222 10.4405C101.391 9.96036 101.475 9.41387 101.475 8.80107C101.475 8.18826 101.391 7.64177 101.222 7.16159C101.057 6.6814 100.813 6.30183 100.488 6.02287C100.164 5.7439 99.7591 5.60442 99.2746 5.60442C98.7856 5.60442 98.3742 5.7439 98.0406 6.02287C97.7115 6.30183 97.4624 6.6814 97.2933 7.16159C97.1287 7.64177 97.0465 8.18826 97.0465 8.80107C97.0465 9.41387 97.1287 9.96036 97.2933 10.4405C97.4624 10.9207 97.7115 11.3003 98.0406 11.5793C98.3742 11.8537 98.7856 11.9909 99.2746 11.9909Z" fill="black"/>
<path d="M106.343 18V3.51219H109.222V5.28201H109.353C109.481 4.99848 109.666 4.71037 109.908 4.41768C110.155 4.12043 110.475 3.87348 110.868 3.67683C111.266 3.47561 111.759 3.375 112.349 3.375C113.117 3.375 113.825 3.57622 114.474 3.97866C115.123 4.37652 115.642 4.9779 116.03 5.78277C116.419 6.58308 116.613 7.58689 116.613 8.79421C116.613 9.96951 116.423 10.9619 116.044 11.7713C115.669 12.5762 115.157 13.1867 114.508 13.6029C113.864 14.0145 113.142 14.2203 112.342 14.2203C111.775 14.2203 111.293 14.1265 110.895 13.939C110.502 13.7515 110.18 13.516 109.929 13.2325C109.677 12.9444 109.485 12.654 109.353 12.3613H109.264V18H106.343ZM109.202 8.78049C109.202 9.40701 109.289 9.9535 109.462 10.42C109.636 10.8864 109.887 11.25 110.217 11.5107C110.546 11.7668 110.946 11.8948 111.416 11.8948C111.892 11.8948 112.294 11.7645 112.623 11.5038C112.952 11.2386 113.201 10.8727 113.37 10.4062C113.544 9.93521 113.631 9.39329 113.631 8.78049C113.631 8.17226 113.546 7.63719 113.377 7.1753C113.208 6.71341 112.959 6.35213 112.63 6.09146C112.301 5.83079 111.896 5.70046 111.416 5.70046C110.941 5.70046 110.539 5.82622 110.21 6.07774C109.885 6.32927 109.636 6.68598 109.462 7.14787C109.289 7.60976 109.202 8.15396 109.202 8.78049Z" fill="black"/>
<path d="M123.359 14.2546C122.276 14.2546 121.344 14.0351 120.562 13.596C119.785 13.1524 119.186 12.5259 118.766 11.7165C118.345 10.9024 118.135 9.93979 118.135 8.82851C118.135 7.74466 118.345 6.79345 118.766 5.97485C119.186 5.15625 119.778 4.51829 120.542 4.06098C121.309 3.60366 122.21 3.375 123.243 3.375C123.937 3.375 124.584 3.48704 125.183 3.71113C125.786 3.93064 126.312 4.2622 126.76 4.70579C127.212 5.14939 127.564 5.70732 127.816 6.37957C128.067 7.04726 128.193 7.82927 128.193 8.72561V9.5282H119.301V7.71722H125.443C125.443 7.29649 125.352 6.92378 125.169 6.59909C124.986 6.27439 124.733 6.02058 124.408 5.83765C124.088 5.65015 123.716 5.5564 123.291 5.5564C122.847 5.5564 122.454 5.6593 122.112 5.86509C121.773 6.06631 121.508 6.33841 121.316 6.6814C121.124 7.01982 121.026 7.3971 121.021 7.81326V9.53506C121.021 10.0564 121.117 10.5069 121.309 10.8864C121.506 11.266 121.782 11.5587 122.139 11.7645C122.495 11.9703 122.918 12.0732 123.407 12.0732C123.732 12.0732 124.029 12.0274 124.299 11.936C124.568 11.8445 124.799 11.7073 124.991 11.5244C125.183 11.3415 125.329 11.1174 125.43 10.8521L128.131 11.0305C127.994 11.6799 127.713 12.247 127.288 12.7317C126.867 13.2119 126.323 13.5869 125.656 13.8567C124.993 14.122 124.228 14.2546 123.359 14.2546Z" fill="black"/>
<path d="M130.099 14.0488V3.51219H132.93V5.35061H133.04C133.232 4.69665 133.554 4.20274 134.006 3.8689C134.459 3.53049 134.98 3.36128 135.57 3.36128C135.716 3.36128 135.874 3.37043 136.043 3.38872C136.212 3.40701 136.36 3.43216 136.488 3.46418V6.05716C136.351 6.01601 136.161 5.97942 135.919 5.94741C135.677 5.9154 135.455 5.89939 135.254 5.89939C134.825 5.89939 134.441 5.99314 134.102 6.18064C133.769 6.36357 133.504 6.61966 133.307 6.94893C133.115 7.2782 133.019 7.65777 133.019 8.08765V14.0488H130.099Z" fill="black"/>
<path d="M146.76 6.51677L144.086 6.6814C144.041 6.45274 143.942 6.24695 143.791 6.06402C143.641 5.87652 143.442 5.7279 143.195 5.61814C142.953 5.50381 142.663 5.44665 142.324 5.44665C141.872 5.44665 141.49 5.54268 141.179 5.73476C140.869 5.92226 140.713 6.17378 140.713 6.48933C140.713 6.74085 140.814 6.95351 141.015 7.12729C141.216 7.30107 141.561 7.44055 142.05 7.54573L143.956 7.92988C144.98 8.14024 145.743 8.47866 146.246 8.94512C146.749 9.41158 147 10.0244 147 10.7835C147 11.4741 146.797 12.08 146.39 12.6014C145.988 13.1227 145.435 13.5297 144.731 13.8224C144.031 14.1105 143.225 14.2546 142.311 14.2546C140.917 14.2546 139.806 13.9642 138.979 13.3834C138.156 12.798 137.674 12.0023 137.532 10.9962L140.405 10.8453C140.492 11.2706 140.702 11.5953 141.035 11.8194C141.369 12.0389 141.796 12.1486 142.317 12.1486C142.829 12.1486 143.241 12.0503 143.551 11.8537C143.867 11.6524 144.027 11.3941 144.031 11.0785C144.027 10.8133 143.915 10.596 143.695 10.4268C143.476 10.253 143.138 10.1204 142.681 10.029L140.857 9.6654C139.829 9.4596 139.063 9.1029 138.56 8.59527C138.062 8.08765 137.813 7.44055 137.813 6.65396C137.813 5.97713 137.996 5.39405 138.362 4.90473C138.732 4.4154 139.251 4.03811 139.918 3.77287C140.59 3.50762 141.376 3.375 142.276 3.375C143.606 3.375 144.653 3.65625 145.416 4.21875C146.184 4.78125 146.632 5.54726 146.76 6.51677Z" fill="black"/>
</svg>
